<svg width="22" height="22" viewBox="0 0 22 22" fill="none" xmlns="http://www.w3.org/2000/svg">
<path d="M21.2539 19.9793L15.4133 14.084C16.5563 12.6512 17.2453 10.8355 17.2453 8.86133C17.2453 4.24023 13.4992 0.494141 8.87266 0.494141C4.24609 0.494141 0.5 4.2457 0.5 8.8668C0.5 13.4879 4.24609 17.234 8.87266 17.234C10.8742 17.234 12.7063 16.534 14.15 15.3637L19.9523 21.2207C20.1273 21.4066 20.368 21.4996 20.6031 21.4996C20.8273 21.4996 21.0516 21.4176 21.2211 21.2535C21.582 20.909 21.593 20.3402 21.2539 19.9793ZM8.87266 15.4348C7.11719 15.4348 5.46563 14.7512 4.22422 13.5098C2.98281 12.2684 2.29922 10.6168 2.29922 8.8668C2.29922 7.11133 2.98281 5.45977 4.22422 4.22383C5.46563 2.98242 7.11719 2.29883 8.87266 2.29883C10.6281 2.29883 12.2797 2.98242 13.5211 4.22383C14.7625 5.46523 15.4461 7.1168 15.4461 8.8668C15.4461 10.6223 14.7625 12.2738 13.5211 13.5098C12.2797 14.7512 10.6281 15.4348 8.87266 15.4348Z" fill="#9A99A2"/>
</svg>
